<?xml version="1.0" encoding="iso-8859-1"?>
<!-- Generator: Adobe Illustrator 19.0.0, SVG Export Plug-In . SVG Version: 6.00 Build 0)  -->
<svg version="1.1" id="Capa_1" xmlns="http://www.w3.org/2000/svg" xmlns:xlink="http://www.w3.org/1999/xlink" x="0px" y="0px"
	 viewBox="0 0 240.033 240.033" style="enable-background:new 0 0 240.033 240.033;" xml:space="preserve">
<path d="M233.736,186.357l-7.071-7.072c-4.061-4.061-9.46-6.297-15.203-6.297c-1.604,0-3.176,0.192-4.704,0.532l-2.994-2.827
	C213.993,154.145,214,132.796,202,116.751V27.974c0-6.075-4.592-11-10.667-11h-180C5.258,16.974,0,21.899,0,27.974v142
	c0,6.075,5.258,11,11.333,11h117.741c9.07,8.367,20.772,12.958,33.185,12.958c9.076,0,17.772-2.455,25.339-7.044l2.909,2.909
	c-1.542,6.942,0.362,14.503,5.752,19.895l7.07,7.069c4.062,4.062,9.46,6.298,15.203,6.298s11.142-2.236,15.202-6.297
	c4.062-4.062,6.298-9.46,6.298-15.203S237.797,190.417,233.736,186.357z M155.599,43.125l13.467,17.396L150.878,74.6l-13.467-17.396
	L155.599,43.125z M19.049,77.945l16.263-16.263L18.342,44.711L30.363,32.69L47.333,49.66L64.304,32.69l12.021,12.021L59.354,61.681
	l16.263,16.263L63.597,89.965L47.333,73.702L31.07,89.965L19.049,77.945z M47.678,154.655l-13.477-17.389l18.179-14.089
	l13.477,17.389L47.678,154.655z M81.51,128.417l-13.481-17.386l19.038-14.763l13.481,17.386L81.51,128.417z M121.757,69.361
	l13.481,17.386L116.2,101.509l-13.481-17.386L121.757,69.361z M143.168,164.024c-10.527-10.527-10.527-27.657,0-38.184
	c5.1-5.1,11.88-7.908,19.092-7.908s13.992,2.809,19.092,7.908c10.527,10.526,10.527,27.656,0,38.184
	c-5.1,5.1-11.88,7.908-19.092,7.908S148.268,169.124,143.168,164.024z"/>
<g>
</g>
<g>
</g>
<g>
</g>
<g>
</g>
<g>
</g>
<g>
</g>
<g>
</g>
<g>
</g>
<g>
</g>
<g>
</g>
<g>
</g>
<g>
</g>
<g>
</g>
<g>
</g>
<g>
</g>
</svg>
